<svg width="13" height="13" viewBox="0 0 13 13" fill="none" xmlns="http://www.w3.org/2000/svg">
<path d="M2.99866 11.8549C3.08628 11.9005 3.18467 11.9213 3.28324 11.9152C3.38182 11.9091 3.47688 11.8763 3.5582 11.8202L10.5999 6.94523C10.6718 6.89538 10.7306 6.82883 10.7712 6.75129C10.8118 6.67375 10.8331 6.58751 10.8331 6.49998C10.8331 6.41244 10.8118 6.32621 10.7712 6.24867C10.7306 6.17113 10.6718 6.10458 10.5999 6.05473L3.5582 1.17973C3.47694 1.1235 3.38184 1.09057 3.28321 1.08452C3.18457 1.07846 3.08616 1.0995 2.99862 1.14536C2.91109 1.19122 2.83777 1.26015 2.7866 1.34469C2.73543 1.42923 2.70836 1.52616 2.70833 1.62498V11.375C2.70831 11.4739 2.73536 11.5708 2.78654 11.6554C2.83772 11.74 2.91108 11.809 2.99866 11.8549Z" fill="#FA4A0C"/>
</svg>
